<svg width="50" height="50" viewBox="0 0 50 50" fill="none" xmlns="http://www.w3.org/2000/svg">
<path fill-rule="evenodd" clip-rule="evenodd" d="M24.9998 5.72917C14.3568 5.72917 5.729 14.357 5.729 25C5.729 35.643 14.3568 44.2708 24.9998 44.2708C35.6428 44.2708 44.2707 35.643 44.2707 25C44.2707 14.357 35.6428 5.72917 24.9998 5.72917ZM2.604 25C2.604 12.6311 12.631 2.60417 24.9998 2.60417C37.3687 2.60417 47.3957 12.6311 47.3957 25C47.3957 37.3689 37.3687 47.3958 24.9998 47.3958C12.631 47.3958 2.604 37.3689 2.604 25ZM24.9998 15.1042C25.8628 15.1042 26.5623 15.8037 26.5623 16.6667V25C26.5623 25.8629 25.8628 26.5625 24.9998 26.5625C24.1369 26.5625 23.4373 25.8629 23.4373 25V16.6667C23.4373 15.8037 24.1369 15.1042 24.9998 15.1042ZM23.4373 33.3333C23.4373 32.4704 24.1369 31.7708 24.9998 31.7708H25.0207C25.8836 31.7708 26.5832 32.4704 26.5832 33.3333C26.5832 34.1963 25.8836 34.8958 25.0207 34.8958H24.9998C24.1369 34.8958 23.4373 34.1963 23.4373 33.3333Z" fill="#DFDFDF"/>
</svg>
