<svg width="19" height="19" viewBox="0 0 19 19" fill="none" xmlns="http://www.w3.org/2000/svg">
	<path fill-rule="evenodd" clip-rule="evenodd"
		d="M14.5382 4.46175C14.77 4.69362 14.77 5.06956 14.5382 5.30144L5.30158 14.538C5.06971 14.7699 4.69377 14.7699 4.46189 14.538C4.23002 14.3061 4.23002 13.9302 4.46189 13.6983L13.6985 4.46175C13.9303 4.22987 14.3063 4.22987 14.5382 4.46175Z"
		fill="#0052CC" />
	<path fill-rule="evenodd" clip-rule="evenodd"
		d="M14.1183 13.0328C13.7904 13.0328 13.5245 12.7669 13.5245 12.439V5.47555L6.56108 5.47555C6.23316 5.47555 5.96733 5.20972 5.96733 4.8818C5.96733 4.55388 6.23316 4.28805 6.56108 4.28805L14.1183 4.28805C14.4462 4.28805 14.712 4.55388 14.712 4.8818V12.439C14.712 12.7669 14.4462 13.0328 14.1183 13.0328Z"
		fill="#0052CC" />
</svg>