<svg width="14" height="14" viewBox="0 0 14 14" fill="none" xmlns="http://www.w3.org/2000/svg">
<path fill-rule="evenodd" clip-rule="evenodd" d="M10.7121 3.28769C10.883 3.45854 10.883 3.73555 10.7121 3.90641L3.90622 10.7123C3.73537 10.8832 3.45836 10.8832 3.2875 10.7123C3.11665 10.5415 3.11665 10.2644 3.2875 10.0936L10.0934 3.28769C10.2643 3.11683 10.5413 3.11683 10.7121 3.28769Z" fill="#0052CC"/>
<path fill-rule="evenodd" clip-rule="evenodd" d="M10.4027 9.60301C10.1611 9.60301 9.96521 9.40714 9.96521 9.16551L9.96521 4.03455L4.83425 4.03455C4.59262 4.03455 4.39675 3.83867 4.39675 3.59705C4.39675 3.35542 4.59262 3.15955 4.83425 3.15955L10.4027 3.15955C10.6443 3.15955 10.8402 3.35542 10.8402 3.59705V9.16551C10.8402 9.40714 10.6443 9.60301 10.4027 9.60301Z" fill="#0052CC"/>
</svg>
