<svg width="20" height="20" viewBox="0 0 20 20" fill="none" xmlns="http://www.w3.org/2000/svg">
<path fill-rule="evenodd" clip-rule="evenodd" d="M5.05013 5.05025C5.35387 4.74651 5.84633 4.74651 6.15007 5.05025L14.9496 13.8498C15.2534 14.1535 15.2534 14.646 14.9496 14.9497C14.6459 15.2535 14.1534 15.2535 13.8497 14.9497L5.05013 6.1502C4.74638 5.84646 4.74638 5.354 5.05013 5.05025Z" fill="#525252"/>
<path fill-rule="evenodd" clip-rule="evenodd" d="M14.9499 5.05025C15.2536 5.354 15.2536 5.84646 14.9499 6.1502L6.15032 14.9497C5.84658 15.2535 5.35412 15.2535 5.05038 14.9497C4.74664 14.646 4.74664 14.1535 5.05038 13.8498L13.8499 5.05025C14.1537 4.74651 14.6461 4.74651 14.9499 5.05025Z" fill="#525252"/>
</svg>
