<svg width="14" height="14" viewBox="0 0 14 14" fill="none" xmlns="http://www.w3.org/2000/svg">
<path d="M2.32686 8.55208L1.4402 7.66541C1.07853 7.30374 1.07853 6.70873 1.4402 6.34707L2.32686 5.46039C2.47852 5.30872 2.60102 5.01122 2.60102 4.80122V3.54704C2.60102 3.0337 3.02103 2.61372 3.53436 2.61372H4.78852C4.99852 2.61372 5.29603 2.49124 5.44769 2.33957L6.33435 1.45289C6.69602 1.09122 7.29102 1.09122 7.65269 1.45289L8.53937 2.33957C8.69104 2.49124 8.98852 2.61372 9.19852 2.61372H10.4527C10.966 2.61372 11.386 3.0337 11.386 3.54704V4.80122C11.386 5.01122 11.5085 5.30872 11.6602 5.46039L12.5469 6.34707C12.9085 6.70873 12.9085 7.30374 12.5469 7.66541L11.6602 8.55208C11.5085 8.70375 11.386 9.00125 11.386 9.21125V10.4654C11.386 10.9787 10.966 11.3988 10.4527 11.3988H9.19852C8.98852 11.3988 8.69104 11.5212 8.53937 11.6729L7.65269 12.5596C7.29102 12.9212 6.69602 12.9212 6.33435 12.5596L5.44769 11.6729C5.29603 11.5212 4.99852 11.3988 4.78852 11.3988H3.53436C3.02103 11.3988 2.60102 10.9787 2.60102 10.4654V9.21125C2.60102 8.99542 2.47852 8.69792 2.32686 8.55208Z" stroke="#525252" stroke-linecap="round" stroke-linejoin="round"/>
<path d="M5.25 8.75L8.75 5.25" stroke="#525252" stroke-linecap="round" stroke-linejoin="round"/>
<path d="M8.45509 8.45817H8.46033" stroke="#525252" stroke-linecap="round" stroke-linejoin="round"/>
<path d="M5.53846 5.54167H5.5437" stroke="#525252" stroke-linecap="round" stroke-linejoin="round"/>
</svg>
