<svg width="18" height="18" viewBox="0 0 18 18" fill="none" xmlns="http://www.w3.org/2000/svg">
<path d="M6.41666 1.16663H5.24999C2.33332 1.16663 1.16666 2.33329 1.16666 5.24996V8.74996C1.16666 11.6666 2.33332 12.8333 5.24999 12.8333H8.74999C11.6667 12.8333 12.8333 11.6666 12.8333 8.74996V7.58329" stroke="#525252" stroke-linecap="round" stroke-linejoin="round"/>
<path d="M9.35666 1.76169L4.75999 6.35836C4.58499 6.53336 4.40999 6.87753 4.37499 7.12836L4.12416 8.88419C4.03082 9.52002 4.47999 9.96336 5.11582 9.87586L6.87166 9.62503C7.11666 9.59003 7.46082 9.41503 7.64166 9.24003L12.2383 4.64336C13.0317 3.85003 13.405 2.92836 12.2383 1.76169C11.0717 0.595025 10.15 0.968359 9.35666 1.76169Z" stroke="#525252" stroke-miterlimit="10" stroke-linecap="round" stroke-linejoin="round"/>
<path d="M8.69751 2.42078C9.08834 3.81494 10.1792 4.90578 11.5792 5.30244" stroke="#525252" stroke-miterlimit="10" stroke-linecap="round" stroke-linejoin="round"/>
</svg>
