<svg width="16" height="16" viewBox="0 0 16 16" fill="none" xmlns="http://www.w3.org/2000/svg">
<path d="M6 14.6667H10C13.3333 14.6667 14.6667 13.3333 14.6667 10V6C14.6667 2.66667 13.3333 1.33334 10 1.33334H6C2.66666 1.33334 1.33333 2.66667 1.33333 6V10C1.33333 13.3333 2.66666 14.6667 6 14.6667Z" stroke="#525252" stroke-linecap="round" stroke-linejoin="round"/>
<path d="M4.66667 5.5C5.33334 6.16667 6.42001 6.16667 7.09334 5.5" stroke="#525252" stroke-miterlimit="10" stroke-linecap="round" stroke-linejoin="round"/>
<path d="M8.90666 5.5C9.57333 6.16667 10.66 6.16667 11.3333 5.5" stroke="#525252" stroke-miterlimit="10" stroke-linecap="round" stroke-linejoin="round"/>
<path d="M5.6 8.66666H10.4C10.7333 8.66666 11 8.93333 11 9.26666C11 10.9267 9.66 12.2667 8 12.2667C6.34 12.2667 5 10.9267 5 9.26666C5 8.93333 5.26667 8.66666 5.6 8.66666Z" stroke="#525252" stroke-miterlimit="10" stroke-linecap="round" stroke-linejoin="round"/>
</svg>
