<svg width="50" height="50" viewBox="0 0 50 50" fill="none" xmlns="http://www.w3.org/2000/svg">
<rect width="50" height="50" rx="5" fill="#FFB843" fill-opacity="0.05"/>
<path d="M35 20.4297V26.4297C35 27.9297 34.5 29.1797 33.62 30.0597C32.75 30.9297 31.5 31.4297 30 31.4297V33.5597C30 34.3597 29.11 34.8397 28.45 34.3997L24 31.4297H21.88C21.96 31.1297 22 30.8197 22 30.4997C22 29.4797 21.61 28.5397 20.97 27.8297C20.25 27.0097 19.18 26.4997 18 26.4997C16.88 26.4997 15.86 26.9597 15.13 27.7097C15.04 27.3097 15 26.8797 15 26.4297V20.4297C15 17.4297 17 15.4297 20 15.4297H30C33 15.4297 35 17.4297 35 20.4297Z" stroke="#FFB843" stroke-miterlimit="10" stroke-linecap="round" stroke-linejoin="round"/>
<path d="M22 30.5C22 31.25 21.79 31.96 21.42 32.56C21.21 32.92 20.94 33.24 20.63 33.5C19.93 34.13 19.01 34.5 18 34.5C16.54 34.5 15.27 33.72 14.58 32.56C14.21 31.96 14 31.25 14 30.5C14 29.24 14.58 28.11 15.5 27.38C16.19 26.83 17.06 26.5 18 26.5C20.21 26.5 22 28.29 22 30.5Z" stroke="#FFB843" stroke-miterlimit="10" stroke-linecap="round" stroke-linejoin="round"/>
<path d="M16.4399 30.4995L17.4299 31.4895L19.5599 29.5195" stroke="#FFB843" stroke-linecap="round" stroke-linejoin="round"/>
<path d="M21.5 23.5H28.5" stroke="#FFB843" stroke-miterlimit="10" stroke-linecap="round" stroke-linejoin="round"/>
</svg>
