<svg width="144" height="18" viewBox="0 0 144 18" fill="none" xmlns="http://www.w3.org/2000/svg">
<path d="M0.304776 0.216858H4.12402L6.30569 11.2806L8.61825 0.216858H12.3059L12.6334 17.7543H10.0157L9.7319 5.84596L7.46272 17.7543H5.23767L2.90229 5.78102L2.64052 17.7543H0L0.304776 0.216858Z" fill="white"/>
<path d="M17.7824 0.216858H21.7755L25.1785 17.7543H21.8623L21.2082 13.9005H18.4155L17.739 17.7543H14.3569L17.7824 0.216858ZM20.8586 11.6918L19.7894 4.63323L18.7423 11.6918H20.8586Z" fill="white"/>
<path d="M27.7313 16.6609C26.9156 15.7722 26.4719 14.3973 26.4004 12.5362L29.4986 12.0166C29.4717 12.86 29.6318 13.6988 29.9676 14.474C30.0792 14.7151 30.2596 14.9184 30.4864 15.0588C30.7133 15.1992 30.9766 15.2706 31.2439 15.2641C31.4183 15.2792 31.5937 15.2505 31.7539 15.1805C31.9142 15.1105 32.054 15.0015 32.1605 14.8637C32.3605 14.5585 32.4597 14.1991 32.4443 13.8354C32.4639 13.2144 32.301 12.6011 31.9754 12.0704C31.5604 11.4754 31.0647 10.9399 30.5023 10.4792L28.6699 8.89835C27.997 8.35674 27.4312 7.69605 27.001 6.94974C26.5974 6.18224 26.3984 5.32507 26.4228 4.45971C26.4228 3.03051 26.8483 1.92961 27.6992 1.15699C28.55 0.384378 29.7243 -0.000692084 31.2218 0.00178186C32.8221 0.00178186 33.9349 0.459462 34.5602 1.37482C35.2276 2.42352 35.597 3.63171 35.6293 4.87162L32.5098 5.32621C32.5189 4.63148 32.412 3.94005 32.1934 3.28001C32.1099 3.06864 31.9594 2.88994 31.7645 2.77086C31.5697 2.65178 31.3412 2.59878 31.1134 2.61984C30.9353 2.61254 30.7583 2.64944 30.5982 2.7272C30.4382 2.80495 30.3002 2.92111 30.1968 3.06515C29.9756 3.3705 29.8607 3.73901 29.8692 4.11497C29.852 4.62853 29.9846 5.1361 30.251 5.5767C30.5907 6.06737 30.9982 6.50821 31.4616 6.88628L33.2509 8.44487C34.0343 9.11003 34.7048 9.8959 35.2367 10.7724C35.7318 11.6472 35.9805 12.6382 35.9565 13.6413C35.9703 14.4249 35.7745 15.1981 35.3892 15.8823C35.0123 16.5379 34.4565 17.0744 33.7857 17.4301C33.0506 17.8161 32.2284 18.0099 31.3969 17.9931C29.7676 17.9926 28.5458 17.5485 27.7313 16.6609Z" fill="white"/>
<path d="M39.5139 2.85829H36.7866V0.216858H45.8192V2.85829H43.1357V17.7543H39.5135V2.85829H39.5139Z" fill="white"/>
<path d="M47.4121 0.216858H55.1157V2.68499H50.9901V7.33997H54.1759V9.83111H50.9901V15.3307H55.1561V17.7554H47.4121V0.216858Z" fill="white"/>
<path d="M56.9888 0.216858H61.5709C63.4761 0.216858 64.9087 0.56321 65.8688 1.25592C66.8289 1.94862 67.3089 3.14663 67.3089 4.84994C67.345 5.79332 67.1815 6.73373 66.8287 7.6105C66.4836 8.33464 65.8758 8.90289 65.1269 9.20174L67.5718 17.7543H63.8846L61.8779 9.80811H60.5691V17.7543H56.9888V0.216858ZM61.6371 7.6862C62.481 7.6862 63.0738 7.48049 63.4156 7.06908C63.7574 6.65766 63.9283 6.01171 63.9283 5.13123C63.9806 4.46422 63.8204 3.79776 63.4702 3.22605C63.1646 2.82205 62.6119 2.61993 61.8121 2.61968H60.5683V7.6862H61.6374H61.6371Z" fill="white"/>
<path d="M70.54 16.6609C69.725 15.7732 69.2815 14.3983 69.2095 12.5362L72.3077 12.0166C72.2808 12.86 72.4409 13.6989 72.7767 14.474C72.8883 14.7151 73.0686 14.9185 73.2955 15.0589C73.5223 15.1993 73.7857 15.2706 74.053 15.2641C74.2274 15.2792 74.4028 15.2505 74.563 15.1805C74.7232 15.1105 74.863 15.0015 74.9695 14.8637C75.1696 14.5585 75.2688 14.1991 75.2534 13.8354C75.273 13.2144 75.11 12.6011 74.7844 12.0704C74.3694 11.4754 73.8737 10.94 73.3114 10.4792L71.479 8.89835C70.8061 8.35678 70.2402 7.69608 69.81 6.94974C69.4064 6.18226 69.2074 5.32507 69.2319 4.45971C69.2319 3.03051 69.6573 1.92961 70.5082 1.15699C71.3591 0.384378 72.5328 -0.000692085 74.0294 0.00178186C75.6297 0.00178186 76.7425 0.459463 77.3677 1.37482C78.0352 2.42352 78.4046 3.63172 78.4369 4.87163L75.3173 5.32621C75.3266 4.63148 75.2197 3.94004 75.001 3.28001C74.9174 3.06864 74.7669 2.88994 74.5721 2.77086C74.3773 2.65178 74.1488 2.59878 73.921 2.61984C73.7429 2.61257 73.5659 2.64949 73.4058 2.72724C73.2458 2.805 73.1078 2.92114 73.0044 3.06515C72.7834 3.37059 72.6686 3.73907 72.6772 4.11497C72.66 4.62858 72.7927 5.13617 73.0594 5.5767C73.3992 6.06738 73.8068 6.50822 74.2702 6.88629L76.0596 8.44487C76.843 9.11008 77.5134 9.89594 78.0454 10.7724C78.5404 11.6472 78.7891 12.6382 78.7652 13.6413C78.7789 14.4249 78.5832 15.1981 78.1979 15.8823C77.821 16.5379 77.2652 17.0744 76.5944 17.4301C75.859 17.816 75.0365 18.0095 74.2048 17.9923C72.5753 17.9923 71.3537 17.5485 70.54 16.6609Z" fill="white"/>
<path d="M80.817 5.21807C81.018 5.23313 81.2193 5.19254 81.3984 5.10081C81.5775 5.00909 81.7275 4.86983 81.8316 4.69854C82.042 4.22188 82.1354 3.70247 82.1042 3.183H80.6641V0.216858H83.6748L83.6527 2.55474C83.6094 3.83946 83.4022 4.77758 83.0312 5.3691C82.6603 5.96062 82.0167 6.26368 81.1005 6.27828L80.817 5.21807Z" fill="white"/>
<path d="M92.903 17.332C92.1669 16.8986 91.6101 16.2195 91.3324 15.4161C90.9969 14.3816 90.842 13.2979 90.8743 12.2117V0.216858H94.4086V12.7097C94.3806 13.3798 94.4844 14.049 94.7141 14.6798C94.8445 14.8976 95.0297 15.078 95.2515 15.2033C95.4734 15.3286 95.7243 15.3945 95.9796 15.3945C96.2348 15.3945 96.4857 15.3286 96.7076 15.2033C96.9295 15.078 97.1147 14.8976 97.245 14.6798C97.4745 14.0489 97.5783 13.3798 97.5506 12.7097V0.216858H101.107V12.2117C101.139 13.2979 100.984 14.3817 100.648 15.4161C100.369 16.2218 99.8077 16.9016 99.0666 17.332C98.1143 17.8188 97.049 18.0466 95.9792 17.9922C94.6706 17.9924 93.6452 17.7724 92.903 17.332Z" fill="white"/>
<path d="M103.615 0.216858H106.124L110.051 9.332V0.216858H113.04V17.7543H110.618L106.692 8.0547V17.7543H103.615V0.216858Z" fill="white"/>
<path d="M115.746 0.216858H119.324V17.7543H115.746V0.216858Z" fill="white"/>
<path d="M122.946 16.531C122.146 15.5568 121.746 14.1241 121.746 12.2331V5.69441C121.746 3.80357 122.146 2.38179 122.946 1.42908C123.746 0.476359 125.084 0 126.96 0C128.822 0 130.157 0.479946 130.964 1.43984C131.772 2.39973 132.175 3.81792 132.175 5.69441V12.2546C132.175 14.1311 131.771 15.5564 130.964 16.5307C130.157 17.5049 128.822 17.992 126.96 17.992C125.085 17.9923 123.747 17.5053 122.946 16.531ZM128.194 14.8203C128.429 14.2854 128.538 13.7038 128.51 13.1207V4.82828C128.539 4.252 128.431 3.67701 128.194 3.1502C128.047 2.96472 127.86 2.81474 127.647 2.7116C127.433 2.60846 127.199 2.55487 126.961 2.55487C126.724 2.55487 126.489 2.60846 126.276 2.7116C126.062 2.81474 125.875 2.96472 125.728 3.1502C125.491 3.67695 125.382 4.25199 125.412 4.82828V13.1207C125.383 13.7064 125.487 14.291 125.717 14.8311C125.921 15.2353 126.335 15.4374 126.961 15.4374C127.205 15.466 127.452 15.4227 127.671 15.313C127.89 15.2032 128.072 15.0319 128.193 14.8203H128.194Z" fill="white"/>
<path d="M134.576 0.216858H137.085L141.011 9.332V0.216858H144V17.7543H141.579L137.652 8.0547V17.7543H134.576V0.216858Z" fill="white"/>
</svg>
