<svg
                  width="16"
                  height="16"
                  viewBox="0 0 16 16"
                  fill="none"
                  xmlns="http://www.w3.org/2000/svg"
                >
                  <path
                    d="M6.88 12.6465C6.97334 12.7199 7.06667 12.7865 7.16667 12.8599C7.92667 13.4132 8.69334 13.8532 9.46 14.1799C10.2267 14.5065 10.9533 14.6665 11.6333 14.6665C12.1 14.6665 12.5333 14.5799 12.9333 14.4132C13.34 14.2465 13.7 13.9865 14.0267 13.6265C14.22 13.4132 14.3667 13.1865 14.48 12.9465C14.5933 12.7065 14.6467 12.4599 14.6467 12.2199C14.6467 12.0332 14.6067 11.8665 14.54 11.6999C14.4667 11.5332 14.3467 11.3932 14.1733 11.2732L11.9667 9.70653C11.8 9.5932 11.6467 9.50653 11.5 9.44653C11.3533 9.38653 11.22 9.35986 11.0933 9.35986C10.9267 9.35986 10.7733 9.40653 10.62 9.49986C10.4667 9.57986 10.3067 9.70653 10.14 9.8732L9.63334 10.3732C9.56001 10.4465 9.47334 10.4865 9.36001 10.4865C9.30001 10.4865 9.24667 10.4799 9.19334 10.4599C9.14667 10.4399 9.10667 10.4199 9.07334 10.4065C8.94667 10.3399 8.80001 10.2465 8.64001 10.1265"
                    stroke="#A3A3A3"
                    stroke-miterlimit="10"
                    stroke-linecap="round"
                    stroke-linejoin="round"
                  />
                  <path
                    d="M7.15337 8.81325C6.80671 8.45992 6.48671 8.10659 6.18671 7.75992C5.89337 7.41325 5.68671 7.12659 5.56671 6.90659C5.55337 6.86659 5.53337 6.82659 5.51337 6.77325C5.50004 6.71992 5.49337 6.67325 5.49337 6.61992C5.49337 6.51325 5.52671 6.42659 5.60004 6.35325L6.10671 5.82659C6.26671 5.66659 6.39337 5.50659 6.48004 5.35325C6.57337 5.19992 6.62004 5.03992 6.62004 4.87992C6.62004 4.75325 6.58671 4.61325 6.52671 4.47325C6.46671 4.32659 6.38004 4.17325 6.26004 4.00659L4.71337 1.82659C4.59337 1.65325 4.44004 1.53325 4.26671 1.45325C4.10004 1.37325 3.91337 1.33325 3.72671 1.33325C3.23337 1.33325 2.76671 1.53992 2.34004 1.95992C1.98671 2.29325 1.73337 2.66659 1.57337 3.07325C1.41337 3.47325 1.33337 3.90659 1.33337 4.35992C1.33337 5.05325 1.49337 5.77992 1.81337 6.53992C2.13337 7.29325 2.57337 8.05325 3.12004 8.81325C3.67337 9.57325 4.29337 10.2999 4.98004 10.9933"
                    stroke="#A3A3A3"
                    stroke-miterlimit="10"
                    stroke-linecap="round"
                    stroke-linejoin="round"
                  />
                  <path
                    d="M14.6667 1.33325L1.33337 14.6666"
                    stroke="#A3A3A3"
                    stroke-linecap="round"
                    stroke-linejoin="round"
                  />
                </svg>