<svg width="273" height="223" viewBox="0 0 273 223" fill="none" xmlns="http://www.w3.org/2000/svg">
<rect width="273" height="223" fill="white"/>
<path d="M71.1695 163.66C71.652 163.736 74.2931 163.863 74.2931 163.406C74.2931 163.139 73.8106 163.152 73.8106 163.152C73.8741 161.12 76.4517 160.612 78.2928 161.679C78.8003 161.971 79.2695 162.325 79.6895 162.733C77.0865 162.873 73.6328 164.65 73.8614 167.228C73.9926 167.9 74.2745 168.534 74.6857 169.081C75.0969 169.629 75.6269 170.076 76.2358 170.389C76.9969 170.959 77.8638 171.371 78.786 171.603C79.7081 171.834 80.6671 171.879 81.6069 171.735C83.2807 171.309 84.7534 170.312 85.7717 168.917C88.0731 168.99 90.3249 168.238 92.1204 166.796C92.1962 166.736 92.2589 166.661 92.3048 166.576C92.3506 166.491 92.3786 166.397 92.3871 166.301C92.3871 165.856 92.3871 165.882 89.8476 163.063C89.7757 162.983 89.6856 162.921 89.5848 162.883C89.4841 162.845 89.3757 162.831 89.2687 162.844C89.1617 162.856 89.0592 162.894 88.97 162.954C88.8807 163.015 88.8071 163.095 88.7556 163.19C88.7118 163.245 88.6735 163.305 88.6413 163.368C88.4396 163.746 88.1136 164.044 87.7181 164.211C87.3226 164.377 86.8819 164.402 86.47 164.282C85.2003 163.914 83.5623 160.549 80.5784 158.543C77.9754 156.79 74.4836 156.27 72.0202 158.352C70.96 159.262 70.2063 160.477 69.8617 161.831C69.7246 162.249 69.7518 162.703 69.9378 163.101C70.2714 163.424 70.7067 163.622 71.1695 163.66ZM75.9438 168.371C75.5957 168.122 75.354 167.751 75.2669 167.332C75.1799 166.913 75.2538 166.477 75.474 166.11C76.037 165.332 76.8196 164.74 77.7214 164.409C76.9939 165.642 76.3981 166.949 75.9438 168.307V168.371ZM87.9048 166.364C88.2096 165.45 87.9048 165.768 88.4127 165.539C88.7976 165.347 89.1457 165.089 89.4412 164.777L90.5967 166.149C89.6398 166.755 88.5819 167.185 87.4731 167.418C87.6001 167.088 87.8033 166.58 87.9048 166.301V166.364ZM83.3083 163.126C84.5146 164.637 85.5177 165.983 87.3588 165.831C87.0961 166.378 86.8837 166.947 86.724 167.533C85.7971 167.596 85.6701 167.38 85.3018 167.533C84.5781 167.812 83.3845 170.415 80.4895 170.402C80.6697 170 80.7854 169.571 80.8323 169.132C81.6515 168.967 82.4183 168.605 83.0671 168.079C83.3451 167.838 83.5257 167.504 83.575 167.139C83.575 166.694 83.4226 166.123 82.483 165.374C82.833 164.632 83.1095 163.858 83.3083 163.063V163.126ZM79.042 167.926C77.9246 167.329 79.8292 166.275 81.0609 166.314C81.3439 166.316 81.6205 166.398 81.8587 166.551C82.0969 166.704 82.2869 166.921 82.4068 167.177C82.2372 167.45 82.0136 167.686 81.7497 167.869C81.4858 168.053 81.1872 168.181 80.8722 168.245C80.5571 168.309 80.2323 168.308 79.9176 168.243C79.6029 168.177 79.3049 168.048 79.042 167.863V167.926ZM80.5403 160.155C81.4025 160.888 82.1856 161.71 82.8766 162.606C82.4748 163.339 82.1676 164.119 81.9624 164.93C81.4288 164.776 80.8694 164.735 80.319 164.807C79.7685 164.879 79.2388 165.063 78.7626 165.349C76.439 166.618 76.985 169.399 80.2101 169.082C80.0206 169.447 79.8797 169.835 79.7911 170.237C78.5035 169.981 77.2995 169.409 76.2866 168.574C77.1867 167.175 77.8876 165.658 78.369 164.066C78.8626 163.839 79.3966 163.714 79.9396 163.696C80.4825 163.679 81.0235 163.77 81.5307 163.965L81.7973 162.961L81.518 162.834C80.9212 162.428 80.6546 162.111 79.9689 161.565C80.2234 161.101 80.4155 160.606 80.5403 160.092V160.155ZM75.6136 158.124C77.2026 158.153 78.7412 158.686 80.007 159.647C79.7796 160.165 79.6093 160.706 79.4991 161.26C78.8904 160.782 78.1724 160.464 77.4099 160.333C76.6473 160.202 75.8642 160.263 75.1311 160.511C75.399 159.741 75.5614 158.938 75.6136 158.124ZM72.7059 159.114C73.4098 158.566 74.2557 158.231 75.1438 158.149C74.7498 159.003 74.505 159.917 74.4201 160.854C74.0417 161.081 73.7321 161.406 73.5241 161.795C73.3162 162.184 73.2177 162.622 73.2392 163.063C72.3496 163.112 71.4593 162.978 70.6235 162.669C70.8124 161.259 71.5519 159.981 72.6805 159.114H72.7059ZM53.7358 156.994C51.4502 156.003 46.3712 158.936 45.4443 160.511C45.3102 160.858 45.3102 161.243 45.4443 161.59C46.2443 164.625 53.7104 175.342 55.0944 177.005C55.3357 177.31 55.6658 176.891 55.45 176.535C54.7897 175.443 54.8659 177.64 58.2434 166.707C58.5563 166.585 58.8477 166.413 59.1068 166.199C59.2246 166.069 59.2898 165.899 59.2898 165.723C59.2898 165.547 59.2246 165.378 59.1068 165.247C58.9916 165.105 58.8594 164.977 58.7132 164.866L59.5132 161.908L62.6875 163.66C62.0456 165.264 61.5774 166.933 61.2908 168.637C60.0106 169.099 58.8109 169.759 57.7355 170.593C56.9864 171.418 58.1672 172.942 58.9037 173.856C59.6401 174.77 60.2623 175.392 60.402 175.532C60.5417 175.672 60.9861 175.532 60.948 175.303C60.8674 175.12 60.7604 174.949 60.6306 174.796C59.9425 173.725 59.3518 172.594 58.8656 171.418C59.8525 170.828 60.8943 170.334 61.9765 169.945C62.3701 169.805 63.5891 169.424 63.9192 169.628C65.5482 170.486 67.2474 171.204 68.9982 171.774C69.0689 171.807 69.1501 171.811 69.224 171.785C69.2978 171.759 69.3582 171.705 69.3918 171.634C69.4255 171.563 69.4297 171.482 69.4035 171.408C69.3773 171.334 69.3229 171.274 69.2522 171.24L67.0555 169.907C67.5232 168.847 67.823 167.72 67.9443 166.568L73.3662 169.501C73.6963 169.691 73.9503 169.171 73.709 169.031C73.4678 168.891 57.0118 158.428 53.7358 156.994ZM51.8058 158.34C52.2489 158.206 52.7213 158.206 53.1644 158.34C53.4564 158.466 54.1675 158.847 55.1325 159.381C54.807 160.279 54.5855 161.212 54.4722 162.161C53.6215 161.679 53.1136 161.311 52.4406 161.425C52.0738 161.507 51.7307 161.672 51.4375 161.908C51.5645 160.917 51.6788 160.155 51.8058 158.34ZM46.7268 161.133C48.0436 159.878 49.6413 158.955 51.3867 158.441C50.7091 161.436 50.234 164.474 49.9646 167.533C48.6842 165.505 47.6041 163.357 46.7395 161.12L46.7268 161.133ZM52.4914 171.812C51.7931 170.656 51.0312 169.374 50.3075 168.117C50.7392 166.301 50.8788 165.463 51.1455 163.749C51.8402 164.954 52.6435 166.093 53.5453 167.152C53.0334 168.663 52.6844 170.226 52.5041 171.812H52.4914ZM54.7135 175.468C54.2564 174.745 53.6723 173.767 52.9105 172.51C53.3925 170.917 53.7116 169.279 53.8628 167.621C54.1421 168.294 56.6308 167.329 57.3038 167.075C56.8086 168.637 55.0817 174.072 54.7262 175.468H54.7135ZM54.3326 167.228C53.5457 165.866 52.85 164.453 52.2502 163L52.6438 162.784C52.8216 162.885 57.1641 165.45 57.4816 165.653C56.492 166.283 55.4412 166.81 54.3453 167.228H54.3326ZM58.1418 164.434C57.1895 163.799 55.8944 163.025 54.904 162.454C55.2428 161.555 55.4647 160.616 55.5642 159.66L59.1703 161.692C59.1068 162.174 58.6751 163.165 58.218 164.434H58.1418ZM66.5476 169.513L64.5922 168.332C63.7233 167.989 62.7565 167.989 61.8876 168.332C62.3797 166.848 62.7367 165.323 62.9542 163.774L67.5507 166.314C67.0811 167.349 66.7687 168.449 66.6238 169.577L66.5476 169.513Z" fill="#172B4D"/>
<path d="M256.369 174.034C254.312 154.886 236.586 125.441 225.997 109.353C231.91 109.826 237.844 109.974 243.773 109.797C245.462 109.797 249.881 109.493 250.731 109.327C251.227 109.226 251.303 108.756 250.554 108.731C249.804 108.705 244.471 108.451 243.748 108.439H230.834C228.854 108.515 225.755 108.693 225.578 108.693C221.768 102.89 219.115 99.2583 219.089 99.2456C219.06 99.216 219.025 99.193 218.986 99.1782C218.947 99.1633 218.906 99.1568 218.864 99.1593C218.823 99.1617 218.782 99.173 218.745 99.1924C218.709 99.2117 218.676 99.2387 218.651 99.2715C218.625 99.3043 218.607 99.3422 218.597 99.3826C218.588 99.423 218.587 99.4651 218.594 99.5059C218.602 99.5467 218.619 99.5854 218.643 99.6193C218.667 99.6533 218.698 99.6817 218.734 99.7027C219.318 100.173 244.979 137.668 252.826 163.495C255.937 173.742 257.779 186.605 247.747 190.16C223.927 198.667 37.3621 201.435 19.7252 191.43C17.2746 190.046 16.7032 187.163 17.1857 183.278C17.9349 177.881 20.8426 170.58 24.3471 162.403C28.2961 166.212 61.0557 196.293 66.3633 195.163C71.6708 194.033 101.523 180.167 102.754 177.513C103.47 175.67 103.848 173.713 103.872 171.736C104.022 171.529 104.092 171.275 104.069 171.02C104.045 170.765 103.93 170.528 103.745 170.352C101.777 168.396 62.7318 137.44 60.2176 137.529C58.4654 137.605 55.291 139.408 53.78 140.297C53.2901 139.495 52.5607 138.868 51.6949 138.503C50.8291 138.139 49.8707 138.055 48.9549 138.265C48.0915 138.614 47.3185 139.154 46.6939 139.844C46.0693 140.535 45.6094 141.358 45.3488 142.252C45.3631 142.321 45.4005 142.382 45.4549 142.427C45.5092 142.471 45.5772 142.495 45.6472 142.495C45.7173 142.495 45.7852 142.471 45.8396 142.427C45.894 142.382 45.9314 142.321 45.9456 142.252C46.7093 140.961 47.92 139.994 49.3486 139.535C49.9425 139.444 50.5502 139.523 51.1009 139.763C51.6516 140.004 52.1227 140.396 52.4595 140.894L38.3398 146.925C37.5901 146.154 36.6542 145.59 35.6225 145.287C33.21 144.652 31.5847 146.239 30.6197 148.563C30.5985 148.63 30.6009 148.702 30.6267 148.767C30.6524 148.832 30.6999 148.887 30.761 148.921C30.8222 148.955 30.8933 148.967 30.9624 148.955C31.0315 148.943 31.0943 148.908 31.1403 148.855C32.7656 146.506 34.6448 145.706 36.8923 147.585C34.175 148.791 30.3785 150.506 27.712 151.826C27.9024 151.521 55.3037 101.899 55.3037 101.772C56.51 99.5377 58.9352 95.538 61.4366 95.0174C62.5672 94.7709 63.7205 94.6432 64.8776 94.6364C63.1127 97.5569 48.7899 121.301 48.7645 124.653C48.7645 128.463 49.4248 127.866 51.4564 128.463C53.488 129.059 167.169 128.361 167.372 128.361C169.34 128.361 177.035 128.107 177.746 127.587C179.955 125.961 179.46 123.536 178.495 120.984C178.267 120.374 177.111 117.848 175.562 114.47C182.228 112.464 187.244 115.016 187.701 125.898C188.158 135.307 184.45 138.176 177.352 137.77C171.651 137.44 167.715 135.764 166.471 137.986C165.074 140.462 168.934 146.023 170.61 148.334C170.369 148.334 159.741 148.118 157.062 148.004C153.286 147.858 149.506 147.905 145.736 148.144C143.139 148.201 140.557 148.555 138.041 149.198C137.088 149.668 135.857 152.118 135.336 153.147C134.308 155.166 129.622 167.838 128.327 171.495C127.565 173.602 124.988 180.586 126.715 181.818C126.651 183.176 126.867 184.992 128.061 185.627C129.254 186.262 145.659 186.719 146.916 186.744C149.138 186.808 171.6 187.1 185.936 186.465C200.271 185.83 206.531 184.459 206.163 184.497C206.527 184.39 206.854 184.183 207.108 183.901C207.361 183.618 207.531 183.271 207.598 182.897C207.794 181.958 207.732 180.985 207.42 180.078C209.02 176.967 196.919 151.14 193.567 149.325C193.369 149.213 193.147 149.152 192.92 149.147C192.247 149.147 177.187 148.512 171.334 148.322C170.064 146.531 165.937 139.789 167.524 138.354C169.937 136.246 190.088 146.811 189.009 125.783C188.45 116.273 184.069 110.699 175.181 113.924C174.407 112.248 167.905 98.3568 166.166 94.6618C172.905 95.0651 179.666 94.9164 186.38 94.2174C186.477 95.4025 186.818 96.5547 187.381 97.6015C187.945 98.6483 188.72 99.5669 189.656 100.3C194.735 104.109 214.95 103.537 218.619 98.8774C219.648 97.4712 220.358 95.8584 220.703 94.1507C221.047 92.4429 221.016 90.6808 220.613 88.986C220.951 88.7711 221.213 88.4559 221.362 88.0845C221.565 87.6909 221.362 87.1957 220.486 87.0179C219.356 86.8486 218.213 86.7806 217.07 86.8148C217.07 85.7736 217.134 83.8308 217.07 81.6215C217.184 81.5453 218.01 80.5549 218.099 80.4406C219.111 79.2581 219.91 77.9091 220.46 76.4536C220.88 75.2727 221.045 73.9141 219.94 73.2538C218.238 72.3269 217.045 74.0283 216.473 75.933C215.94 72.9998 214.708 68.6954 211.763 69.1271C206.76 69.889 210.214 82.0151 211.839 86.8148C210.411 86.6138 208.962 86.6138 207.534 86.8148C209.122 82.8277 209.934 77.6725 205.858 76.898C205.24 76.7614 204.596 76.8088 204.005 77.0345C203.413 77.2602 202.901 77.6541 202.532 78.1677C202.45 77.8803 202.297 77.6184 202.086 77.4063C201.876 77.1943 201.615 77.0391 201.328 76.9554C201.042 76.8717 200.738 76.8621 200.447 76.9275C200.155 76.993 199.885 77.1314 199.662 77.3297C197.795 78.6756 198.862 81.7611 201.033 82.7769C200.919 84.0823 200.919 85.3951 201.033 86.7005C199.681 86.5372 198.313 86.5671 196.97 86.7894C196.895 83.689 196.555 80.6008 195.954 77.5583C196.726 77.0093 197.375 76.3059 197.86 75.4928C198.345 74.6796 198.656 73.7745 198.773 72.8348C198.951 71.146 198.354 69.7366 196.945 69.3683C195.18 68.9112 194.139 70.1429 193.834 71.9079C192.272 69.7493 189.212 68.9747 187.726 71.4507C182.965 66.4987 180.666 69.2668 181.873 71.4507C182.774 73.1268 185.123 74.0664 186.952 74.587C186.952 77.4313 188.221 79.8311 189.796 82.2817C190.85 83.9324 192.031 85.5196 192.945 86.6878C190.969 86.6243 188.992 86.7519 187.041 87.0687C185.847 87.3861 185.657 88.2496 186.761 88.8717C186.412 90.3601 186.284 91.8918 186.38 93.4175C179.559 93.0545 172.721 93.2158 165.925 93.9C165.493 92.9731 164.21 90.2685 164.058 89.951C163.906 89.6336 165.125 85.9513 166.839 51.7188C174.711 51.0585 210.112 51.8458 213.363 50.5887C213.549 50.5218 213.714 50.4066 213.841 50.2549C213.968 50.1032 214.053 49.9204 214.086 49.7253C215.166 46.1827 215.902 15.734 214.086 12.9024C213.642 12.2041 212.055 11.9882 211.179 11.8612C199.865 10.2106 152.656 10.9216 150.23 12.2041C147.805 13.4865 148.834 26.0063 149.291 28.495C124.772 27.7078 68.1536 29.2442 62.8206 31.2377C61.5509 31.6948 61.0811 33.4343 60.8271 34.7422C58.7193 45.624 64.6364 80.6438 66.6172 91.4621C66.4902 91.4621 66.6172 91.4621 65.0681 93.8746C63.7569 93.7774 62.4387 93.8457 61.1446 94.0777C58.2495 94.5222 55.5831 98.5219 54.1101 101.011C54.0466 101.138 50.3009 107.359 49.7422 108.375C46.5551 107.88 31.7371 108.07 29.8579 108.172C27.9786 108.274 26.0486 108.413 24.3471 108.54C24.0424 108.54 24.017 109.124 24.3471 109.137C27.9024 109.353 29.2103 109.429 31.9656 109.467C38.708 109.569 48.6502 109.848 48.9676 109.81C48.3074 110.965 38.5303 128.361 37.2224 130.824C31.5339 141.49 27.0644 151.255 26.7977 152.08C25.3217 152.751 23.9354 153.604 22.6711 154.62C22.2632 155.738 22.0195 156.91 21.9473 158.099C21.8838 160.143 22.6203 160.638 23.7503 161.781C20.718 168.278 18.2252 175.014 16.2969 181.919C15.6674 184.713 15.6414 187.609 16.2207 190.414C16.7392 193.218 17.7082 195.919 19.0903 198.413C19.7112 199.044 20.5157 199.462 21.3886 199.607C24.7281 200.547 35.0765 201.753 38.543 202.146C38.2816 203.698 38.2092 205.275 38.3271 206.844C38.3305 208.461 38.5657 210.069 39.0255 211.619C39.0296 211.657 39.0413 211.694 39.0599 211.728C39.0784 211.762 39.1034 211.792 39.1335 211.816C39.1635 211.84 39.1981 211.858 39.2351 211.869C39.2721 211.88 39.3109 211.883 39.3493 211.879C39.3876 211.875 39.4248 211.863 39.4586 211.845C39.4924 211.826 39.5223 211.801 39.5465 211.771C39.5706 211.741 39.5886 211.706 39.5995 211.669C39.6103 211.632 39.6137 211.594 39.6096 211.555C39.8127 209.972 39.868 208.374 39.7746 206.781C39.7663 205.247 39.5917 203.719 39.254 202.223C41.0063 202.375 42.6951 202.502 44.168 202.553C43.9337 204.035 43.8698 205.538 43.9775 207.035C43.9818 208.652 44.217 210.259 44.6759 211.809C44.6759 211.887 44.7066 211.961 44.7614 212.016C44.8162 212.071 44.8905 212.101 44.9679 212.101C45.0454 212.101 45.1197 212.071 45.1744 212.016C45.2292 211.961 45.26 211.887 45.26 211.809C45.4699 210.227 45.5295 208.628 45.4377 207.035C45.429 205.552 45.2587 204.075 44.9298 202.629C47.7614 202.692 89.4347 206.438 161.404 205.016C180.692 204.635 203.878 203.746 222.975 201.651C222.722 203.182 222.65 204.738 222.759 206.286C222.765 207.899 223.004 209.503 223.47 211.047C223.461 211.09 223.461 211.134 223.472 211.176C223.482 211.219 223.501 211.258 223.529 211.292C223.556 211.326 223.591 211.353 223.63 211.372C223.669 211.39 223.712 211.4 223.755 211.4C223.799 211.4 223.842 211.39 223.881 211.372C223.92 211.353 223.955 211.326 223.982 211.292C224.01 211.258 224.029 211.219 224.039 211.176C224.05 211.134 224.05 211.09 224.041 211.047C224.263 209.466 224.323 207.866 224.219 206.273C224.205 204.705 224.022 203.142 223.673 201.613C225.082 201.461 228.346 201.054 228.625 201.016C228.375 202.539 228.307 204.087 228.422 205.626C228.423 207.242 228.658 208.85 229.12 210.4C229.129 210.477 229.167 210.548 229.228 210.597C229.289 210.646 229.367 210.669 229.444 210.66C229.521 210.652 229.592 210.613 229.641 210.552C229.69 210.491 229.713 210.414 229.704 210.336C229.913 208.758 229.969 207.164 229.869 205.575C229.861 204.01 229.678 202.451 229.323 200.927C235.05 200.153 252.56 197.791 254.947 192.903C257.766 187.328 257.537 180.078 256.369 174.034ZM140.822 153.591C140.961 153.248 145.215 152.321 149.862 153.591C149.905 153.582 149.949 153.583 149.991 153.593C150.033 153.603 150.073 153.622 150.107 153.65C150.14 153.677 150.168 153.712 150.186 153.751C150.205 153.79 150.215 153.833 150.215 153.877C150.215 153.92 150.205 153.963 150.186 154.002C150.168 154.042 150.14 154.076 150.107 154.104C150.073 154.131 150.033 154.151 149.991 154.161C149.949 154.171 149.905 154.171 149.862 154.162C147.548 154.574 145.185 154.633 142.853 154.34C141.761 154.162 140.377 154.15 140.783 153.591H140.822ZM206.1 183.786C194.354 186.021 129.47 185.513 128.492 185.056C127.515 184.598 127.426 183.126 127.4 182.161C134.435 184.446 203.166 182.681 206.988 180.662C207.192 181.78 207.242 183.57 206.061 183.786H206.1ZM181.454 153.731C181.454 153.299 184.247 153.058 184.374 153.045C186.035 152.917 187.703 152.917 189.364 153.045C190.291 153.147 191.574 153.274 191.472 153.667C191.37 154.061 189.453 154.226 189.123 154.277C187.882 154.391 186.636 154.442 185.39 154.429C184.552 154.404 181.365 154.251 181.416 153.731H181.454ZM197.77 157.959C200.947 164.012 203.614 170.319 205.744 176.815C206.015 177.635 206.165 178.491 206.188 179.354C200.462 181.132 134.46 182.96 127.781 181.043C127.464 180.954 127.375 181.043 127.299 180.51C126.816 177.056 132.467 163.33 133.774 160.13C157.798 159.33 197.516 158.099 197.732 157.959H197.77ZM187.079 74.0156C185.69 73.2529 184.43 72.2759 183.346 71.1206C182.85 70.3715 182.965 69.8509 184.425 70.5619C185.339 70.9809 186.622 71.7301 187.485 72.2507C187.263 72.8157 187.126 73.4105 187.079 74.0156ZM217.553 76.2885C218.569 74.4601 219.572 73.9395 219.47 75.0188C218.924 76.9501 218.149 78.8088 217.159 80.5549C217.083 79.2851 216.994 78.4344 216.892 77.5964C216.943 77.4186 217.197 76.8853 217.515 76.2885H217.553ZM212.156 87.3354C212.41 88.0591 212.575 88.4908 212.588 88.5162C212.602 88.5522 212.623 88.585 212.65 88.6128C212.677 88.6407 212.709 88.6629 212.744 88.6782C212.779 88.6936 212.818 88.7018 212.856 88.7023C212.895 88.7028 212.933 88.6957 212.969 88.6813C213.528 88.4654 212.702 87.9448 211.382 80.2882C210.988 78.0027 209.82 70.9555 212.131 70.6254C214.01 70.3461 215.026 75.0061 215.381 76.8472C216.04 80.3961 216.464 83.9846 216.651 87.5893C216.65 87.6596 216.675 87.7279 216.72 87.7816C216.766 87.8353 216.829 87.8709 216.898 87.8817C216.968 87.8925 217.039 87.8778 217.098 87.8405C217.158 87.8031 217.202 87.7455 217.223 87.6782C217.227 87.6063 217.227 87.5342 217.223 87.4623C218.371 87.4961 219.511 87.6537 220.626 87.9321C220.484 88.0976 220.306 88.228 220.105 88.3131C217.438 89.6844 209.376 89.4177 206.595 89.367C206.976 88.6051 207.242 88.021 207.534 87.3227C209.052 87.5721 210.599 87.5763 212.118 87.3354H212.156ZM202.252 84.5546C202.544 82.0151 203.192 77.9646 205.757 78.4471C208.322 78.9296 207.674 82.65 207.115 85.1387C206.771 86.5664 206.347 87.9738 205.846 89.3543H202.036C202.006 87.7523 202.065 86.1499 202.214 84.5546H202.252ZM200.64 78.5868C200.699 78.5305 200.769 78.4872 200.846 78.4597C200.922 78.4322 201.004 78.4211 201.085 78.4271C201.167 78.4331 201.246 78.456 201.318 78.4944C201.39 78.5329 201.453 78.586 201.503 78.6502C201.705 78.8528 201.888 79.0738 202.049 79.3105C201.688 80.1202 201.436 80.9742 201.3 81.85C200.64 80.9358 199.789 79.2724 200.64 78.5868ZM196.64 70.8667C198.291 71.3873 196.995 75.7298 195.891 77.0504C195.585 75.6837 195.13 74.3551 194.532 73.0887C194.9 71.9713 195.523 70.5111 196.64 70.854V70.8667ZM193.516 87.475C194.139 88.2623 194.545 88.7448 194.545 88.7448C194.595 88.7946 194.662 88.8243 194.733 88.8285C194.804 88.8326 194.873 88.811 194.929 88.7675C194.985 88.724 195.023 88.6616 195.037 88.592C195.05 88.5224 195.038 88.4504 195.002 88.3893C195.002 88.3893 192.754 85.1895 190.901 81.8754C189.504 79.3359 188.171 76.7964 188.539 73.9902C188.831 71.7809 189.999 70.8413 191.967 72.1237C194.811 73.9522 196.107 85.2276 196.513 88.6305C196.517 88.7196 196.548 88.8052 196.603 88.8757C196.657 88.9461 196.732 88.998 196.818 89.0241C197.16 89.0241 197.11 88.6559 197.097 88.4781C197.084 88.3004 197.097 87.4115 197.097 87.3227C198.446 87.4933 199.811 87.4933 201.16 87.3227C201.236 88.2496 201.325 88.9733 201.389 89.3543C196.881 89.3543 191.434 89.659 187.701 88.1988C189.62 87.8192 191.563 87.5773 193.516 87.475ZM187.434 89.3416C189.291 90.0613 191.249 90.4896 193.237 90.6113C195.484 90.8145 210.785 90.8399 212.525 90.751C215.148 90.7079 217.745 90.2228 220.207 89.3162C220.443 90.8753 220.354 92.4666 219.945 93.9897C219.537 95.5128 218.817 96.9348 217.832 98.1663C214.747 101.785 195.23 102.61 190.545 99.3091C187.46 97.1886 186.901 92.9477 187.434 89.3289V89.3416ZM177.2 126.622C177.467 127.472 56.3957 127.51 56.2687 127.498C51.1897 127.498 52.4595 127.498 50.758 127.079C50.3009 126.977 50.212 126.977 50.1231 126.533C50.0154 125.836 49.9856 125.129 50.0342 124.425C50.0608 124.477 50.1039 124.519 50.1566 124.544C50.2094 124.569 50.269 124.576 50.3263 124.565C50.3263 124.565 177.162 122.838 177.987 122.812C178.33 124.298 178.381 125.682 177.2 126.622ZM212.918 49.5602C212.918 49.5602 212.994 49.4332 213.02 49.4713C213.045 49.5094 212.918 49.5475 212.855 49.5602H212.918ZM149.773 17.537C149.773 16.7117 150.103 13.5881 150.84 13.2072C152.516 12.3691 205.782 11.6581 213.058 13.9309C214.328 16.5974 213.921 46.5509 212.855 49.5602C206.607 50.5379 175.168 50.4617 166.991 51.2998C167.486 41.3068 167.702 32.8884 167.296 31.2504C167.218 31.0368 167.091 30.8442 166.926 30.6878C166.76 30.5314 166.561 30.4154 166.344 30.3488C163.563 29.1426 153.1 28.7997 150.053 28.6982C149.657 24.9915 149.564 21.2588 149.773 17.537ZM61.9699 49.5094C61.7794 46.8429 60.8398 33.3836 63.3793 32.4439C64.6491 31.9995 69.1186 31.5551 75.6071 31.1742C88.0379 30.3996 107.63 29.7775 125.458 29.6505C129.419 29.6505 162.89 29.3584 166.166 31.6059C167.131 35.9992 164.045 84.8085 163.36 89.5193C133.355 90.497 97.8023 91.9699 67.5441 91.2335C67.0362 88.3258 63.1508 65.8892 61.9699 49.5094ZM67.1505 92.0842C67.1529 92.0546 67.1529 92.0249 67.1505 91.9953C88.5458 92.6556 155.5 90.4589 163.652 90.4081C164.553 92.5032 177.213 120.59 177.746 122.152C177.606 122.152 50.2247 123.879 50.0596 124.006C51.6595 118.647 64.8903 95.9951 67.1505 92.0842ZM102.056 177.158C101.116 178.986 72.6485 191.709 66.795 193.474C66.9085 192.889 66.9511 192.292 66.9219 191.696C75.569 188.7 94.3359 180.789 102.754 175.19C102.594 175.873 102.36 176.537 102.056 177.17V177.158ZM102.932 174.352C100.393 175.85 97.9674 176.891 66.9092 191.011C66.9104 190.436 66.8336 189.863 66.6807 189.309C70.7439 187.405 98.2975 176.726 103.211 172.472C103.148 173.018 103.059 173.679 102.932 174.364V174.352ZM37.5272 148.296C38.1377 149.015 38.5156 149.903 38.6109 150.842C38.7061 151.78 38.5142 152.726 38.0605 153.553C37.8573 153.87 38.3398 154.201 38.543 153.87C39.3095 153.035 39.7627 151.959 39.8252 150.827C39.8877 149.695 39.5557 148.576 38.8858 147.661C45.0568 144.83 51.1262 142.163 52.7896 141.44C53.2057 142.285 53.4285 143.212 53.4417 144.155C53.4548 145.097 53.2581 146.03 52.8658 146.887C52.7134 147.293 53.1705 147.445 53.3864 147.179C54.0847 146.291 54.5194 145.226 54.6406 144.103C54.7619 142.98 54.5648 141.846 54.072 140.83C55.4434 140.055 58.6432 138.291 60.205 138.291C62.1604 138.291 101.84 170.568 102.577 171.304C99.2626 174.72 68.4964 186.897 65.9061 188.141C60.4462 186.871 27.1279 158.213 24.0043 155.267C25.947 153.655 35.3432 149.312 37.5272 148.296ZM23.0393 155.851C27.0009 159.724 60.0526 188.573 65.5887 189.487C65.4776 189.966 65.4264 190.456 65.4363 190.947C56.5481 186.605 31.153 164.613 22.7472 157.54C22.7853 157.54 22.9758 156.296 23.0774 155.851H23.0393ZM23.2297 160.206C22.8716 159.661 22.6939 159.017 22.7218 158.365C31.026 166.746 54.4657 187.354 65.4236 191.646C65.401 192.325 65.4694 193.004 65.6268 193.664C59.113 192.204 24.0932 161.248 23.2678 160.206H23.2297ZM254.325 192.484C246.122 208.762 23.5345 204.508 19.9284 198.159C18.3998 195.502 17.3672 192.59 16.881 189.563C17.3708 190.636 18.189 191.525 19.2173 192.103C37.9081 202.984 223.863 200.14 248.141 191.417C253.284 189.563 255.874 185.563 256.458 179.989C256.803 184.269 256.06 188.567 254.299 192.484H254.325Z" fill="#172B4D"/>
<path d="M64.1929 106.126C153.977 107.396 162.548 106.622 165.062 106.228C165.659 106.139 166.04 105.936 166.014 105.238C166.014 103.396 161.697 94.9525 160.554 94.3684C160.047 94.1018 69.1322 95.3842 68.8148 95.4858C68.7556 95.5001 68.7002 95.5267 68.652 95.5639C68.6039 95.6011 68.5642 95.648 68.5354 95.7017C67.672 97.1111 63.4564 104.069 63.6469 105.644C63.6675 105.775 63.7333 105.895 63.833 105.983C63.9327 106.071 64.0599 106.122 64.1929 106.126ZM69.183 96.3619C70.0972 96.2477 159.539 95.3588 160.085 95.4096C161.033 96.7733 161.881 98.2033 162.624 99.6887C160.542 99.6887 67.4688 100.184 66.9863 100.197C67.545 99.0792 68.2815 97.8095 69.183 96.3619ZM66.6435 100.806C67.1387 100.806 161.316 100.324 162.929 100.285C163.764 101.841 164.425 103.485 164.897 105.187C160.377 105.91 119.186 105.555 64.65 105.187C65.1595 103.649 65.8187 102.165 66.6181 100.755L66.6435 100.806ZM134.271 110.443C134.017 109.883 133.603 109.41 133.081 109.084C132.559 108.759 131.952 108.596 131.337 108.615C128.112 108.615 101.028 107.866 98.5905 108.856C97.0341 110.742 95.8298 112.893 95.0352 115.205C94.959 115.764 95.2383 116.018 95.5812 116.056C103.2 116.881 128.455 117.668 135.007 116.462C135.82 116.31 135.921 115.446 135.756 114.621C135.363 113.194 134.867 111.798 134.271 110.443ZM95.9367 115.205C96.666 113.145 97.656 111.186 98.8825 109.377C100.813 108.742 125.916 110.063 131.376 110.05C131.701 110.038 132.022 110.121 132.301 110.287C132.581 110.454 132.806 110.698 132.95 110.989C133.567 112.308 134.048 113.687 134.385 115.103C127.947 116.107 100.609 115.535 95.9367 115.205ZM222.455 112.069C220.665 109.605 211.687 109.72 208.678 109.809C206.139 109.809 196.907 110.228 196.907 112.716C196.918 112.918 196.977 113.114 197.078 113.289C197.18 113.463 197.321 113.611 197.492 113.719C197.733 113.91 196.069 130.645 198.355 139.622C199.104 142.594 200.069 144.067 202.901 145.298C208.335 147.66 217.35 147.139 220.969 142.098C221.693 140.626 221.541 136.334 221.604 135.026C227.229 136.143 231.838 133.858 233.032 127.801C233.781 123.903 232.816 121.351 231.153 119.802C230.041 118.897 228.728 118.274 227.324 117.987C225.92 117.699 224.467 117.756 223.09 118.151C223.042 118.167 222.99 118.172 222.94 118.164C222.89 118.156 222.842 118.137 222.801 118.107C222.76 118.077 222.727 118.038 222.704 117.992C222.682 117.947 222.67 117.897 222.671 117.846C222.671 117.173 222.912 112.615 222.455 112.069ZM198.33 112.335C201.758 110.329 215.725 110.177 220.233 112.221C220.385 112.297 220.957 112.589 220.957 112.716C220.957 112.843 220.372 113.148 220.233 113.212C216.83 114.748 204.678 115.446 198.291 113.11C197.847 112.869 198.291 112.386 198.291 112.335H198.33ZM223.445 119.446C224.599 119.113 225.817 119.066 226.993 119.307C228.17 119.548 229.27 120.07 230.2 120.83C231.572 122.1 232.257 124.284 231.622 127.522C231.496 128.647 231.106 129.727 230.484 130.674C229.862 131.62 229.025 132.407 228.042 132.969C225.959 133.906 223.615 134.086 221.414 133.477C221.306 133.438 221.19 133.421 221.076 133.428C220.961 133.435 220.849 133.466 220.746 133.519C220.644 133.571 220.553 133.644 220.48 133.733C220.407 133.822 220.353 133.925 220.322 134.036C219.979 135.001 220.461 138.899 219.763 141.362C216.551 145.717 208.335 146.111 203.472 144.067C201.009 143.013 200.323 141.921 199.663 139.292C197.961 133.058 197.86 120.36 198.241 114.113C202.24 116.005 216.093 116.551 221.541 113.758C221.541 117.694 221.058 118.354 222.049 119.154C222.24 119.299 222.461 119.4 222.696 119.45C222.93 119.5 223.173 119.499 223.407 119.446H223.445ZM100.101 146.352C96.7668 143.524 93.1795 141.008 89.3848 138.835C87.9229 137.973 86.3682 137.278 84.7502 136.765C83.3915 136.41 82.8201 137.108 83.0995 138.035C83.6719 139.366 84.4284 140.61 85.347 141.73C88.2686 145.429 91.6284 148.758 95.3526 151.647C101.016 156.383 108.355 162.122 113.713 166.198C113.986 166.398 114.296 166.541 114.625 166.619C114.954 166.697 115.296 166.709 115.629 166.653C115.963 166.597 116.282 166.476 116.568 166.295C116.853 166.115 117.1 165.879 117.294 165.602C118.234 164.573 118.818 162.77 117.764 161.792C116.545 160.7 109.091 153.679 100.101 146.352ZM87.9373 143.533L86.1977 140.727C86.817 140.47 87.3407 140.026 87.696 139.457L90.4514 140.575C89.76 140.712 89.1353 141.079 88.6788 141.616C88.2224 142.153 87.961 142.829 87.9373 143.533ZM91.8354 146.771C90.9178 145.999 90.0681 145.149 89.2959 144.232C89.3848 142.695 89.8673 142.01 91.4037 141.959C92.4273 142.448 93.3939 143.048 94.286 143.749C93.6032 143.915 92.9938 144.301 92.5512 144.847C92.1085 145.393 91.8571 146.069 91.8354 146.771ZM113.548 165.246C112.139 164.065 93.3972 148.168 92.2417 147.152C92.3386 146.441 92.6491 145.777 93.1321 145.246C93.615 144.715 94.2476 144.344 94.9463 144.181C99.3269 147.431 105.625 152.815 116.608 161.957C116.181 161.936 115.754 162.008 115.357 162.169C114.96 162.329 114.604 162.575 114.312 162.889C114.02 163.202 113.801 163.575 113.669 163.983C113.537 164.39 113.496 164.821 113.548 165.246ZM214.163 179.315C215.751 180.394 216.855 179.899 217.884 178.401C220.423 174.795 229.312 158.834 229.312 158.707C229.312 158.58 229.413 158.821 228.994 153.691C228.976 153.498 228.906 153.314 228.792 153.157C228.678 153.001 228.524 152.878 228.346 152.801C228.169 152.724 227.973 152.697 227.781 152.722C227.589 152.747 227.407 152.823 227.255 152.942L222.912 156.104C222.912 156.104 213.275 176.026 213.173 176.204C212.999 176.761 213 177.359 213.177 177.916C213.355 178.472 213.699 178.961 214.163 179.315ZM227.61 154.491C227.686 155.418 227.788 156.65 227.864 157.501C226.921 157.049 225.934 156.696 224.918 156.447L227.61 154.491ZM223.979 157.31C225.079 158.09 226.35 158.595 227.686 158.783C227.496 159.113 217.795 176.813 217.693 176.991C217.398 176.391 216.914 175.906 216.314 175.609C215.715 175.313 215.035 175.223 214.379 175.353C215.37 173.512 223.623 157.945 223.979 157.31Z" fill="#172B4D"/>
<path d="M218.135 132.133C217.998 131.941 217.824 131.778 217.624 131.654C217.423 131.53 217.2 131.447 216.967 131.41C216.215 131.209 215.452 131.056 214.681 130.952C215.113 133.974 215.367 137.301 215.354 137.593C215.335 137.787 215.24 137.964 215.09 138.088C214.94 138.212 214.748 138.271 214.554 138.254C214.36 138.231 214.182 138.134 214.059 137.982C213.935 137.83 213.876 137.636 213.894 137.441C213.894 137.225 213.818 136.349 213.754 130.825C211.215 130.508 198.987 129.556 199.47 131.994C199.47 132.121 198.466 138.342 202.352 141.326C206.237 144.31 214.008 143.726 216.726 140.691C217.497 139.768 218.005 138.654 218.198 137.466C218.498 135.699 218.477 133.893 218.135 132.133ZM221.182 120.642C221.182 121.213 220.421 125.581 219.913 131.448L220.522 131.575C222.756 132.049 225.083 131.795 227.163 130.851C227.888 130.448 228.488 129.854 228.898 129.133C229.308 128.411 229.512 127.591 229.487 126.762C229.573 125.732 229.393 124.696 228.966 123.754C228.538 122.812 227.877 121.996 227.044 121.382C226.212 120.769 225.236 120.378 224.21 120.249C223.184 120.119 222.141 120.255 221.182 120.642ZM221.754 121.074C222.564 120.945 223.393 120.992 224.183 121.211C224.974 121.43 225.709 121.816 226.338 122.343C226.941 122.897 227.409 123.583 227.704 124.347C227.999 125.112 228.114 125.934 228.039 126.75C227.925 130.013 224.573 130.635 221.36 130.305C221.513 127.994 221.639 125.34 221.754 121.074ZM208.155 46.5393C208.151 46.7654 208.193 46.99 208.277 47.2001C208.36 47.4102 208.485 47.6016 208.643 47.7633C208.801 47.925 208.99 48.0538 209.198 48.1423C209.406 48.2308 209.63 48.2772 209.856 48.2788C210.202 48.2864 210.542 48.1908 210.833 48.0043C211.124 47.8179 211.353 47.5489 211.49 47.2318C211.628 46.9147 211.668 46.5638 211.605 46.2238C211.542 45.8839 211.38 45.5704 211.138 45.3233C210.896 45.0762 210.586 44.9067 210.248 44.8364C209.909 44.7662 209.558 44.7983 209.238 44.9288C208.918 45.0593 208.644 45.2821 208.451 45.569C208.258 45.8558 208.155 46.1936 208.155 46.5393ZM69.1802 88.4284C69.4723 88.9998 69.8532 89.0633 70.0945 88.8855C70.3357 88.7077 150.749 88.0094 156.73 87.6919C158.016 87.7117 159.298 87.5493 160.539 87.2094C163.396 84.6699 164.513 37.1939 163.396 34.9972C160.539 29.296 71.123 32.9656 65.6249 34.629C61.2443 35.9495 67.1613 84.3779 69.1802 88.4284ZM65.3837 36.686C65.3837 36.4574 65.663 35.5686 65.8789 35.5051C71.961 33.6767 160.272 30.6673 162.672 35.4416C162.877 36.3969 162.971 37.3726 162.951 38.3494C163.167 43.8855 162.951 55.745 162.38 66.3728C162.266 68.4044 161.364 85.0509 160.044 86.5619C154.774 87.6792 73.5736 87.9332 69.9675 88.0729C67.9105 83.2986 63.4664 45.0663 65.3837 36.686ZM210.021 18.5412C210.366 18.5488 210.706 18.4535 210.997 18.2676C211.287 18.0816 211.516 17.8134 211.654 17.497C211.792 17.1807 211.833 16.8304 211.771 16.4909C211.709 16.1513 211.548 15.8378 211.307 15.5902C211.067 15.3426 210.758 15.1721 210.421 15.1005C210.083 15.0288 209.732 15.0591 209.411 15.1876C209.091 15.3161 208.816 15.537 208.622 15.8222C208.428 16.1073 208.322 16.4438 208.32 16.7889C208.315 17.0162 208.355 17.2421 208.438 17.4537C208.521 17.6652 208.645 17.8582 208.804 18.0212C208.962 18.1843 209.151 18.3142 209.36 18.4035C209.569 18.4928 209.794 18.5396 210.021 18.5412Z" fill="#172B4D"/>
<path d="M90.2317 68.6811H105.316C107.062 68.6744 108.734 67.9754 109.964 66.7375C111.195 65.4996 111.884 63.824 111.881 62.0784V49.838C111.881 48.0887 111.192 46.4097 109.964 45.1644C108.735 43.9192 107.066 43.2079 105.316 43.1845H90.2317C89.357 43.1811 88.4903 43.3509 87.6815 43.6841C86.8728 44.0173 86.138 44.5073 85.5195 45.1258C84.9009 45.7443 84.411 46.4791 84.0778 47.2878C83.7446 48.0966 83.5748 48.9633 83.5782 49.838V62.0784C83.5815 62.9488 83.7562 63.8101 84.0924 64.613C84.4286 65.4158 84.9196 66.1446 85.5374 66.7578C86.1553 67.3709 86.8878 67.8563 87.6933 68.1863C88.4987 68.5163 89.3613 68.6845 90.2317 68.6811ZM84.6575 49.838C84.6806 48.3704 85.2765 46.9699 86.318 45.9356C87.3594 44.9012 88.7639 44.3149 90.2317 44.3019H105.316C106.058 44.2935 106.793 44.432 107.481 44.7095C108.168 44.987 108.794 45.398 109.321 45.9186C109.849 46.4392 110.269 47.0593 110.555 47.7429C110.842 48.4265 110.991 49.1602 110.992 49.9015V62.0784C110.989 62.8204 110.839 63.5545 110.552 64.2388C110.265 64.9231 109.846 65.5441 109.319 66.0664C108.792 66.5888 108.167 67.0022 107.481 67.283C106.794 67.5639 106.058 67.7068 105.316 67.7034H90.2317C89.4963 67.7001 88.7688 67.552 88.0907 67.2675C87.4126 66.983 86.7972 66.5677 86.2796 66.0454C85.762 65.5231 85.3523 64.9039 85.074 64.2232C84.7957 63.5426 84.6541 62.8138 84.6575 62.0784V49.838ZM131.016 77.7472C131.27 78.4963 131.905 78.3313 132.083 77.8614C132.324 77.1885 133.733 72.3507 133.911 71.5127C134.889 71.2079 132.134 72.1603 140.654 69.0621C140.742 69.0278 140.818 68.9677 140.871 68.8895C140.925 68.8113 140.954 68.7187 140.954 68.624C140.954 68.5292 140.925 68.4367 140.871 68.3585C140.818 68.2803 140.742 68.2202 140.654 68.1859L127.601 62.9672C127.52 62.9293 127.432 62.9131 127.343 62.9201C127.255 62.9271 127.17 62.9571 127.097 63.0072C127.023 63.0573 126.965 63.1257 126.926 63.2055C126.887 63.2854 126.87 63.374 126.877 63.4624C126.877 63.4624 130.318 75.7283 131.016 77.7472ZM128.185 64.3259L139.181 68.6557C137.708 69.2017 135.219 70.1413 134.025 70.6239C133.492 70.827 133.276 70.9159 133.149 71.081C133.022 71.246 133.467 70.2556 131.6 76.0076L128.185 64.3259ZM158.151 27.0967C158.166 27.1729 158.207 27.2414 158.267 27.2901C158.328 27.3389 158.403 27.3648 158.481 27.3634C158.748 27.3634 166.963 28.1506 168.639 27.7062C169.718 27.4142 169.909 25.5095 170.01 24.3921C170.137 22.7034 170.01 18.564 169.299 17.1546C168.334 15.2499 161.211 15.8848 159.141 16.253C158.592 16.3303 158.067 16.5299 157.605 16.8371C157.336 17.1493 157.179 17.5428 157.16 17.9545C157.148 21.0293 157.48 24.0959 158.151 27.0967ZM158.519 17.8148C160.525 17.1926 166.239 16.9514 168.055 17.8148C168.677 19.4655 169.007 25.1413 168.258 26.4618C167.077 26.7666 159.865 26.7666 158.659 26.7793C158.621 25.7889 158.036 20.4432 158.519 17.8148ZM175.191 27.0459C175.208 27.121 175.25 27.1881 175.31 27.2365C175.37 27.2848 175.444 27.3116 175.521 27.3126C175.788 27.3126 184.003 28.0998 185.679 27.6554C186.758 27.3634 186.949 25.4587 187.063 24.3414C187.177 22.6526 187.063 18.5132 186.339 17.1038C185.374 15.1864 178.251 15.834 176.181 16.2022C175.633 16.2848 175.109 16.4839 174.645 16.7863C174.382 17.102 174.226 17.4934 174.2 17.9037C174.189 20.9785 174.521 24.045 175.191 27.0459ZM175.559 17.764C177.565 17.1292 183.279 16.9006 185.095 17.764C185.717 19.4147 186.047 25.0905 185.298 26.3984C184.117 26.7158 176.905 26.7158 175.699 26.7285C175.661 25.7381 175.077 20.3924 175.559 17.764ZM193.018 27.6046C193.033 27.6808 193.074 27.7493 193.135 27.798C193.195 27.8468 193.271 27.8727 193.348 27.8713C193.615 27.8713 201.83 28.6585 203.506 28.2141C204.586 27.9221 204.776 26.0174 204.878 24.9C205.005 23.2113 204.878 19.0719 204.167 17.6625C203.202 15.7578 196.078 16.3927 194.009 16.7609C193.46 16.8415 192.936 17.0408 192.472 17.345C192.203 17.6572 192.047 18.0507 192.028 18.4624C192.015 21.5372 192.347 24.6038 193.018 27.6046ZM193.386 18.3227C195.393 17.7005 201.106 17.4593 202.922 18.3227C203.544 19.9734 203.875 25.6492 203.125 26.9697C201.945 27.2745 194.732 27.2745 193.526 27.2872C193.488 26.2968 192.904 20.9511 193.386 18.3227ZM175.305 46.5747C175.394 46.8287 175.597 46.8541 175.635 46.8414C175.915 46.8414 184.117 47.6286 185.793 47.1842C186.873 46.8922 187.063 44.9875 187.177 43.8702C187.292 42.1814 187.177 38.042 186.466 36.6453C185.489 34.7279 178.365 35.3755 176.308 35.731C175.755 35.8098 175.226 36.0092 174.759 36.3151C174.493 36.6342 174.337 37.0305 174.315 37.4452C174.303 40.5158 174.635 43.5781 175.305 46.5747ZM175.686 37.2928C177.692 36.6707 183.393 36.4294 185.209 37.2928C185.831 38.9435 186.162 44.6193 185.412 45.9399C184.231 46.2446 177.032 46.2446 175.826 46.2573C175.775 45.2669 175.191 39.9212 175.686 37.2928ZM204.992 36.1247C207.024 33.128 208.801 30.4235 208.865 30.2965C208.928 30.1695 208.001 29.0267 207.455 29.8394C203.57 35.8199 204.103 35.2485 203.824 35.147C201.589 34.3343 194.377 34.6137 193.247 35.6676C192.485 36.3786 192.777 38.9562 192.866 40.0609C192.053 39.6038 191.431 39.2737 191.202 39.1848C190.618 38.9562 190.656 39.5276 190.974 39.7308L192.955 41.0005C193.115 42.6692 193.374 44.327 193.729 45.9653C193.742 46.0426 193.782 46.1126 193.843 46.1618C193.904 46.2111 193.981 46.236 194.059 46.2319C194.326 46.2319 202.541 47.0191 204.217 46.5747C206.401 45.9652 205.728 37.9531 204.992 36.1247ZM194.097 36.6453C197.084 35.9656 200.179 35.9094 203.189 36.4802L198.783 43.4257C198.338 43.1718 195.964 41.7751 193.983 40.6577C193.9 39.3322 193.938 38.0018 194.097 36.6834V36.6453ZM203.836 45.2796C202.643 45.597 195.443 45.597 194.237 45.6097C194.237 45.1018 194.047 43.4384 193.958 41.5973L198.783 44.5939C198.905 44.6073 199.028 44.5857 199.138 44.5317C199.248 44.4778 199.341 44.3937 199.405 44.2892C199.811 43.7686 201.856 40.7974 203.938 37.7373C204.332 40.0228 204.459 44.1876 203.862 45.2796H203.836ZM153.351 18.1196C153.696 18.1246 154.034 18.0272 154.323 17.8397C154.612 17.6522 154.839 17.383 154.975 17.0664C155.111 16.7497 155.15 16.3999 155.086 16.0611C155.023 15.7224 154.861 15.41 154.62 15.1637C154.379 14.9174 154.07 14.7482 153.733 14.6776C153.396 14.6069 153.045 14.6381 152.726 14.767C152.406 14.8959 152.132 15.1169 151.938 15.4018C151.744 15.6867 151.639 16.0227 151.637 16.3673C151.637 16.8255 151.816 17.2655 152.137 17.5931C152.457 17.9206 152.893 18.1096 153.351 18.1196Z" fill="#172B4D"/>
</svg>
