<svg width="50" height="50" viewBox="0 0 50 50" fill="none" xmlns="http://www.w3.org/2000/svg">
<rect width="50" height="50" rx="5" fill="#00875A" fill-opacity="0.05"/>
<path d="M20.48 31.3505L23.58 33.7505C23.98 34.1505 24.88 34.3505 25.48 34.3505H29.28C30.48 34.3505 31.78 33.4505 32.08 32.2505L34.48 24.9505C34.98 23.5505 34.08 22.3505 32.58 22.3505H28.58C27.98 22.3505 27.48 21.8505 27.58 21.1505L28.08 17.9505C28.28 17.0505 27.68 16.0505 26.78 15.7505C25.98 15.4505 24.98 15.8505 24.58 16.4505L20.48 22.5505" stroke="#00875A" stroke-miterlimit="10"/>
<path d="M15.38 31.3504V21.5504C15.38 20.1504 15.98 19.6504 17.38 19.6504H18.38C19.78 19.6504 20.38 20.1504 20.38 21.5504V31.3504C20.38 32.7504 19.78 33.2504 18.38 33.2504H17.38C15.98 33.2504 15.38 32.7504 15.38 31.3504Z" stroke="#00875A" stroke-linecap="round" stroke-linejoin="round"/>
</svg>
