<svg width="14" height="14" viewBox="0 0 14 14" fill="none" xmlns="http://www.w3.org/2000/svg">
<path d="M10.5817 12.6114C10.0683 12.7631 9.46167 12.8331 8.75 12.8331H5.25C4.53833 12.8331 3.93167 12.7631 3.41833 12.6114C3.54667 11.0948 5.10417 9.89893 7 9.89893C8.89583 9.89893 10.4533 11.0948 10.5817 12.6114Z" stroke="#525252" stroke-linecap="round" stroke-linejoin="round"/>
<path d="M8.74996 1.1665H5.24996C2.33329 1.1665 1.16663 2.33317 1.16663 5.24984V8.74984C1.16663 10.9548 1.83163 12.1623 3.41829 12.6115C3.54663 11.0948 5.10413 9.89899 6.99996 9.89899C8.89579 9.89899 10.4533 11.0948 10.5816 12.6115C12.1683 12.1623 12.8333 10.9548 12.8333 8.74984V5.24984C12.8333 2.33317 11.6666 1.1665 8.74996 1.1665ZM6.99996 8.26566C5.84496 8.26566 4.91162 7.32651 4.91162 6.17151C4.91162 5.01651 5.84496 4.08317 6.99996 4.08317C8.15496 4.08317 9.08829 5.01651 9.08829 6.17151C9.08829 7.32651 8.15496 8.26566 6.99996 8.26566Z" stroke="#525252" stroke-linecap="round" stroke-linejoin="round"/>
<path d="M9.08829 6.17184C9.08829 7.32684 8.15496 8.26599 6.99996 8.26599C5.84496 8.26599 4.91162 7.32684 4.91162 6.17184C4.91162 5.01684 5.84496 4.0835 6.99996 4.0835C8.15496 4.0835 9.08829 5.01684 9.08829 6.17184Z" stroke="#525252" stroke-linecap="round" stroke-linejoin="round"/>
</svg>
